<?xml version="1.0" encoding="UTF-8"?>
<svg version="1.1" xmlns="http://www.w3.org/2000/svg" width="512" height="512">
<path d="M0 0 C5.12898113 2.68233367 9.07776819 6.81142958 10.91015625 12.30859375 C11.05439425 14.07550929 11.13073635 15.84854485 11.16015625 17.62109375 C11.1859375 18.54535156 11.21171875 19.46960938 11.23828125 20.421875 C10.42453201 27.58093078 5.74147053 31.90530788 0.87074471 36.72552872 C0.14615722 37.45447653 -0.57843027 38.18342434 -1.32497495 38.93446147 C-3.76473976 41.3852101 -6.21508871 43.8250943 -8.66549683 46.26519775 C-10.4305738 48.03373002 -12.19499603 49.80291595 -13.9588176 51.57270026 C-17.80035131 55.42416626 -21.64652188 59.27090903 -25.49684525 63.11358643 C-31.22229636 68.82769874 -36.93915737 74.55034779 -42.65435105 80.27471716 C-52.86117003 90.49734236 -63.0765689 100.71135954 -73.29562297 110.92175234 C-82.23775973 119.85634712 -91.17710883 128.79371924 -100.11368179 137.73387909 C-100.70610637 138.32653282 -101.29853095 138.91918656 -101.90890779 139.5297995 C-104.31364399 141.93546968 -106.71836958 144.34115047 -109.12307771 146.74684871 C-131.68726516 169.32021599 -154.26019753 191.88482043 -176.83704481 214.44552512 C-196.90408909 234.49833042 -216.96336096 254.55887956 -237.01611328 274.62597656 C-259.53667939 297.16259877 -282.06207448 319.69437616 -304.59530747 342.21833396 C-306.99633926 344.61840357 -309.39735922 347.01848502 -311.79837418 349.41857147 C-312.68519186 350.30503331 -312.68519186 350.30503331 -313.58992505 351.20940346 C-322.52603095 360.1420939 -331.45842366 369.07848609 -340.38903427 378.01667023 C-350.54062132 388.1768232 -360.69752874 398.33162323 -370.8615471 408.47934082 C-376.55302898 414.16199627 -382.24032848 419.84876361 -387.92174769 425.54147994 C-392.15751113 429.78473781 -396.40102287 434.02015532 -400.6476927 438.25250122 C-402.3696821 439.97112407 -404.08911568 441.69231214 -405.80579911 443.416235 C-408.12996474 445.74945279 -410.46306901 448.07334161 -412.79874992 450.39502335 C-413.47141716 451.07471408 -414.1440844 451.75440482 -414.83713549 452.45469224 C-419.47556045 457.03728578 -423.19150912 459.57517962 -429.90234375 459.68359375 C-436.37866543 459.53881756 -440.95793662 457.4966037 -445.46484375 452.87109375 C-448.8322129 447.56101163 -450.21221805 442.57676889 -449.08984375 436.30859375 C-446.60374829 429.84087073 -442.73910993 425.39983648 -437.84277344 420.60742188 C-437.12042511 419.88448944 -436.39807678 419.16155701 -435.65383911 418.41671753 C-433.28249662 416.04814431 -430.89733992 413.69402738 -428.51171875 411.33984375 C-426.85746441 409.69305585 -425.20409555 408.04537801 -423.55157471 406.39685059 C-419.21370958 402.07420974 -414.8639646 397.76371989 -410.51159668 393.45568848 C-406.06686962 389.05198279 -401.63353698 384.63683859 -397.19921875 380.22265625 C-388.5071793 371.57343118 -379.80254079 362.93700581 -371.08984375 354.30859375 C-373.92298467 351.4686342 -376.75796684 348.6459676 -379.69921875 345.91796875 C-408.09393167 319.46333148 -408.09393167 319.46333148 -419.08984375 305.30859375 C-419.9902225 304.2173482 -420.89409478 303.12897906 -421.80078125 302.04296875 C-432.56669128 289.05611924 -442.01887983 275.04340865 -450.33984375 260.37109375 C-450.69844482 259.73953369 -451.0570459 259.10797363 -451.42651367 258.45727539 C-456.89380277 248.52568424 -457.82660011 237.48673762 -455.47265625 226.40234375 C-454.52668194 223.89090753 -453.40192749 221.65027294 -452.08984375 219.30859375 C-451.54199219 218.26960937 -450.99414062 217.230625 -450.4296875 216.16015625 C-442.67327921 201.98520065 -433.12218714 188.94312735 -423.08984375 176.30859375 C-421.98189453 174.90867188 -421.98189453 174.90867188 -420.8515625 173.48046875 C-406.55488973 155.70485429 -390.31080261 138.08915087 -372.08984375 124.30859375 C-370.86695082 123.33656818 -369.64573377 122.36243218 -368.42578125 121.38671875 C-312.03071485 76.70807888 -240.94673839 54.95626552 -169.29638672 62.90625 C-146.58880062 65.75550399 -123.79245848 70.8819402 -102.91796875 80.4375 C-100.21555756 81.58740109 -100.21555756 81.58740109 -98.12332726 80.55950832 C-96.0196516 79.26541445 -94.46170452 77.91868436 -92.72598267 76.16505432 C-91.75890633 75.19559875 -91.75890633 75.19559875 -90.77229309 74.20655823 C-90.0760936 73.49845505 -89.3798941 72.79035187 -88.66259766 72.06079102 C-87.92062637 71.31429291 -87.17865509 70.5677948 -86.41419983 69.79867554 C-84.80401879 68.17753784 -83.19611771 66.55413315 -81.59022903 64.92874336 C-79.04774065 62.35611312 -76.49865018 59.790199 -73.94760132 57.22605896 C-66.69578252 49.93447079 -59.45667114 42.63031272 -52.22070312 35.32299805 C-47.79390817 30.85348051 -43.35982149 26.39130122 -38.92136765 21.93336296 C-37.23198199 20.23341122 -35.54551782 18.53055095 -33.8620491 16.82473946 C-31.50676822 14.43825208 -29.14240265 12.06112247 -26.77587891 9.68579102 C-26.08372787 8.97971207 -25.39157684 8.27363312 -24.67845154 7.54615784 C-17.62608323 0.50716728 -10.0507655 -3.32520653 0 0 Z M-286.08984375 151.30859375 C-286.87875 152.035625 -287.66765625 152.76265625 -288.48046875 153.51171875 C-307.67370702 171.63120942 -320.96352651 200.27881927 -322.25097656 226.60327148 C-322.5401269 249.93871225 -321.12189215 271.22950128 -310.08984375 292.30859375 C-304.36855621 289.92577642 -300.26019965 285.04286655 -295.90649414 280.77050781 C-294.82112372 279.71327603 -293.72599096 278.66597403 -292.62133789 277.62890625 C-291.01927751 276.1244539 -289.44919287 274.59224861 -287.8828125 273.05078125 C-286.93946045 272.14183105 -285.9961084 271.23288086 -285.02416992 270.29638672 C-282.98330322 267.14402945 -282.8381568 266.62398869 -283.25683594 263.12304688 C-283.53172852 261.86427734 -283.80662109 260.60550781 -284.08984375 259.30859375 C-284.26644531 258.39335937 -284.44304687 257.478125 -284.625 256.53515625 C-284.79902344 255.67664063 -284.97304688 254.818125 -285.15234375 253.93359375 C-288.87964802 231.51329384 -284.67814722 208.12054337 -271.65234375 189.30859375 C-270.15932742 187.28774337 -268.6402452 185.28576076 -267.08984375 183.30859375 C-266.45304687 182.48875 -265.81625 181.66890625 -265.16015625 180.82421875 C-251.29707964 164.14250831 -230.32362399 154.7754933 -209.08984375 152.30859375 C-198.84314948 151.66825368 -189.21021653 152.27999032 -179.2265625 154.65234375 C-175.16980863 155.52973772 -175.16980863 155.52973772 -171.08984375 155.30859375 C-168.82105628 153.47571495 -166.91270565 151.71473913 -164.9140625 149.62109375 C-164.05902885 148.755448 -164.05902885 148.755448 -163.1867218 147.87231445 C-161.3715155 146.02915363 -159.57447401 144.16936687 -157.77734375 142.30859375 C-156.54868452 141.05485323 -155.31887936 139.80223462 -154.08789062 138.55078125 C-151.07509751 135.48290467 -148.07847887 132.40000174 -145.08984375 129.30859375 C-185.89952277 97.35107532 -253.27725157 119.25467422 -286.08984375 151.30859375 Z " fill="#000000" transform="translate(456.08984375,26.69140625)"/>
<path d="M0 0 C19.43996918 9.81240719 38.69181966 32.92839978 51.78608704 49.90153503 C52.65991064 50.95546227 53.53779233 52.00603319 54.41889954 53.05387878 C90.8688286 96.78761047 90.8688286 96.78761047 89.02290344 123.79069519 C88.42786374 129.09452333 86.38993804 133.30650386 83.78608704 137.90153503 C83.42079895 138.55025574 83.05551086 139.19897644 82.67915344 139.86735535 C73.55204525 155.88098199 62.70535998 170.8582394 50.78608704 184.90153503 C49.97913391 185.8928241 49.17218079 186.88411316 48.34077454 187.90544128 C41.88796509 195.74825013 34.88266968 203.01837943 27.72358704 210.21403503 C26.3590741 211.59232483 26.3590741 211.59232483 24.96699524 212.99845886 C18.88054242 219.05755684 12.50692926 224.56121523 5.78608704 229.90153503 C4.24323068 231.17092375 2.70138291 232.4415406 1.16108704 233.71403503 C-16.56411594 247.7825426 -35.77672219 259.23869702 -56.21391296 268.90153503 C-57.9966864 269.75811707 -57.9966864 269.75811707 -59.81547546 270.63200378 C-121.25958824 299.31083664 -193.04860013 300.93487576 -256.47270203 278.01213074 C-261.7521131 276.05589267 -266.99285039 274.00845989 -272.21391296 271.90153503 C-270.72306667 268.45199126 -268.75380523 266.1621909 -266.1348114 263.48429871 C-265.29343628 262.6204808 -264.45206116 261.7566629 -263.58518982 260.8666687 C-262.2180484 259.48207207 -262.2180484 259.48207207 -260.82328796 258.06950378 C-260.35821083 257.59752375 -259.8931337 257.12554371 -259.41396332 256.63926125 C-256.95535471 254.14489521 -254.49071643 251.65667174 -252.02104187 249.17326355 C-249.47235888 246.60798505 -246.94532175 244.02243186 -244.42258835 241.43166637 C-242.47654404 239.44087809 -240.51509498 237.46582578 -238.54912567 235.49473 C-237.15427312 234.08814443 -235.77620089 232.66498265 -234.39842224 231.2416687 C-233.54443848 230.3936116 -232.69045471 229.5455545 -231.81059265 228.67179871 C-231.06605835 227.91775253 -230.32152405 227.16370636 -229.5544281 226.3868103 C-227.21391296 224.90153503 -227.21391296 224.90153503 -224.07627869 225.10241699 C-221.29530431 225.87881212 -218.96879632 226.84088376 -216.40141296 228.15153503 C-211.59989138 230.41145993 -206.79163813 232.09229977 -201.71391296 233.58903503 C-201.03868591 233.79109558 -200.36345886 233.99315613 -199.66777039 234.20133972 C-189.02183992 237.25282617 -178.78345817 238.29205639 -167.71391296 238.27653503 C-167.05639038 238.27599121 -166.3988678 238.27544739 -165.72142029 238.27488708 C-154.47602528 238.23228444 -143.97746521 237.22377621 -133.21391296 233.90153503 C-132.53264343 233.69254578 -131.8513739 233.48355652 -131.14945984 233.26823425 C-99.65878088 223.23001639 -74.36093609 201.99017183 -58.8625946 172.84635925 C-54.76329596 164.80809704 -51.62544276 156.60679222 -49.21391296 147.90153503 C-48.89422546 146.76587097 -48.57453796 145.63020691 -48.24516296 144.46012878 C-41.84965029 117.01272023 -45.72909076 86.63885795 -58.64750671 61.66325378 C-59.42790017 59.23596104 -59.13552363 58.3031135 -58.21391296 55.90153503 C-56.53444601 53.92359881 -54.85720503 52.11444391 -53.02323914 50.29093933 C-52.48331833 49.74254898 -51.94339752 49.19415863 -51.38711548 48.62915039 C-49.6014773 46.82012607 -47.80486268 45.0225056 -46.00688171 43.22575378 C-44.76206291 41.97383621 -43.51754484 40.72161956 -42.27331543 39.46911621 C-39.66485788 36.84721142 -37.05053437 34.23132357 -34.43241882 31.61906433 C-31.07269838 28.26525082 -27.73161335 24.89352234 -24.39510632 21.51663494 C-21.83099131 18.92672022 -19.25554514 16.34831215 -16.6766758 13.77309608 C-15.43951248 12.53423537 -14.20634745 11.29136879 -12.97723961 10.04451561 C-11.26070855 8.30594046 -9.52915692 6.58387107 -7.79277039 4.86515808 C-7.28508118 4.34420563 -6.77739197 3.82325317 -6.25431824 3.28651428 C-2.76258312 -0.12286737 -2.76258312 -0.12286737 0 0 Z " fill="#000000" transform="translate(423.2139129638672,148.0984649658203)"/>
<path d="M0 0 C0.65104151 2.35283375 1.29592122 4.70708449 1.9375 7.0625 C2.21110352 8.04766602 2.21110352 8.04766602 2.49023438 9.05273438 C8.39169589 30.83449235 4.84752949 54.17234587 -5.59375 74.03125 C-7.2787189 76.79714235 -9.07169277 79.39813236 -11 82 C-11.71800781 82.97453125 -12.43601562 83.9490625 -13.17578125 84.953125 C-27.54273434 103.29391618 -47.2053706 113.36232979 -69.875 117.75 C-71.24756111 117.86681371 -72.62363091 117.94362994 -74 118 C-75.14726562 118.0515625 -76.29453125 118.103125 -77.4765625 118.15625 C-89.79176615 118.52147319 -101.70259531 117.19069945 -113 112 C-111.48358398 108.44007464 -109.40112724 106.14749679 -106.67958069 103.41888428 C-105.31886696 102.04754333 -105.31886696 102.04754333 -103.93066406 100.64849854 C-102.92271167 99.64283984 -101.9146514 98.63728925 -100.90649414 97.63183594 C-99.84663257 96.56762647 -98.78718954 95.50300004 -97.72813416 94.43798828 C-94.85275733 91.54922231 -91.97100866 88.66689376 -89.08766484 85.78608227 C-86.68256331 83.38204995 -84.2804437 80.97504902 -81.87827486 78.56808686 C-76.21392336 72.89264166 -70.54426101 67.22254045 -64.87133789 61.55566406 C-59.01292984 55.70330426 -53.16377656 49.84180957 -47.31904131 43.97579741 C-42.30358504 38.94275357 -37.28237136 33.91550538 -32.25648397 28.89287782 C-29.25335174 25.89156226 -26.25251 22.88804183 -23.25721931 19.87889862 C-20.44281113 17.05196204 -17.62130936 14.23230691 -14.79409218 11.41818237 C-13.75585085 10.38231685 -12.72018109 9.34386674 -11.68724442 8.30271149 C-10.28088251 6.88596646 -8.86441682 5.47927218 -7.44740295 4.07318115 C-6.26080377 2.88633036 -6.26080377 2.88633036 -5.05023289 1.67550278 C-3 0 -3 0 0 0 Z " fill="#000000" transform="translate(338,234)"/>
</svg>
