<?xml version="1.0" encoding="UTF-8"?>
<svg version="1.1" xmlns="http://www.w3.org/2000/svg" width="512" height="512">
<path d="M0 0 C0.47598633 0.44666016 0.95197266 0.89332031 1.44238281 1.35351562 C3.7288263 3.4802076 6.0558474 5.52033498 8.43847656 7.53710938 C11.67538079 10.34862989 14.46560271 13.37492337 17.23144531 16.64648438 C19.35606808 19.11717971 21.5834267 21.47373488 23.81347656 23.84960938 C56.1925336 59.51065858 56.1925336 59.51065858 55.80566406 77.26367188 C50.10603292 107.33413962 10.27402797 143.47198912 -12.87402344 160.84960938 C-14.03387229 161.75980161 -15.19264574 162.6713652 -16.35058594 163.58398438 C-39.95057864 181.97578617 -66.55374566 196.2306153 -94.87402344 205.84960938 C-95.77942871 206.15737305 -96.68483398 206.46513672 -97.61767578 206.78222656 C-117.48547889 213.41522415 -138.00733926 217.89902803 -158.87402344 219.84960938 C-160.03933594 219.96046875 -161.20464844 220.07132812 -162.40527344 220.18554688 C-199.49470908 223.16882757 -236.56277249 218.45151187 -271.87402344 206.84960938 C-273.09943848 206.45201416 -273.09943848 206.45201416 -274.34960938 206.04638672 C-300.92662679 197.27718052 -326.59682945 183.78495579 -348.87402344 166.84960938 C-349.44958984 166.41680664 -350.02515625 165.98400391 -350.61816406 165.53808594 C-359.52753632 158.81430941 -367.85156677 151.6062751 -375.87402344 143.84960938 C-376.52725586 143.21829102 -377.18048828 142.58697266 -377.85351562 141.93652344 C-386.04943129 133.97202186 -393.96592689 125.97940531 -400.87402344 116.84960938 C-401.39174316 116.17591309 -401.90946289 115.5022168 -402.44287109 114.80810547 C-426.83609411 82.98756899 -426.83609411 82.98756899 -425.70996094 71.78710938 C-423.9154918 65.48131129 -420.5143474 60.21743006 -416.87402344 54.84960938 C-416.40818848 54.15609375 -415.94235352 53.46257812 -415.46240234 52.74804688 C-407.45497306 40.9158177 -398.76315793 29.88303065 -389.12792969 19.32617188 C-387.59980384 17.64708732 -386.08716486 15.95380115 -384.58886719 14.24804688 C-380.59593653 9.71405015 -376.56398144 5.49808186 -371.94042969 1.60742188 C-369.6865536 -0.30986402 -367.53909497 -2.32101264 -365.37402344 -4.33789062 C-292.62143369 -69.6712665 -185.51380574 -86.8597441 0 0 Z M-258.99902344 7.96679688 C-278.32373277 28.57478768 -284.95204537 54.64297587 -284.25292969 82.14648438 C-283.04048486 109.34477644 -269.02747468 132.98468029 -249.37792969 151.15820312 C-229.30249765 168.06903504 -202.96549163 176.42728664 -176.86621094 174.45336914 C-149.37997919 171.86548739 -124.3665161 158.18894376 -106.62402344 137.03710938 C-88.93340876 113.76771165 -82.99856847 87.10730567 -86.16699219 58.17431641 C-90.00867546 33.30148261 -105.29505314 9.75981414 -125.19824219 -5.31835938 C-169.10322271 -35.37884969 -221.77050815 -29.12484887 -258.99902344 7.96679688 Z " fill="#000000" transform="translate(440.8740234375,181.150390625)"/>
<path d="M0 0 C1.57648315 0.01244751 1.57648315 0.01244751 3.18481445 0.02514648 C21.30038546 0.41759699 37.18306364 7.74976225 50.1875 20.4375 C62.23829061 34.01129732 68.81094617 50.12244439 68.625 68.25 C68.61670166 69.30098877 68.60840332 70.35197754 68.59985352 71.43481445 C68.20740301 89.55038546 60.87523775 105.43306364 48.1875 118.4375 C34.61370268 130.48829061 18.50255561 137.06094617 0.375 136.875 C-0.67598877 136.86670166 -1.72697754 136.85840332 -2.80981445 136.84985352 C-20.92538546 136.45740301 -36.80806364 129.12523775 -49.8125 116.4375 C-61.86329061 102.86370268 -68.43594617 86.75255561 -68.25 68.625 C-68.24170166 67.57401123 -68.23340332 66.52302246 -68.22485352 65.44018555 C-67.83240301 47.32461454 -60.50023775 31.44193636 -47.8125 18.4375 C-34.23870268 6.38670939 -18.12755561 -0.18594617 0 0 Z " fill="#000000" transform="translate(255.8125,187.5625)"/>
</svg>
